<svg xmlns="http://www.w3.org/2000/svg" fill="none" viewBox="0 0 58 58"><path fill="#FF0101" d="M28.6 57.7c15.8 0 28.6-12.91 28.6-28.85C57.2 12.92 44.4 0 28.6 0S0 12.92 0 28.85C0 44.8 12.8 57.7 28.6 57.7Z"/><path fill="#020203" d="M40.92 16.42a4.8 4.8 0 0 0 4.77-4.82 4.8 4.8 0 0 0-4.77-4.82 4.8 4.8 0 0 0-4.78 4.82 4.8 4.8 0 0 0 4.78 4.82Z"/><mask id="a" width="58" height="58" x="0" y="0" style="mask-type:alpha"><path fill="#FF0101" d="M28.6 57.7c15.8 0 28.6-12.91 28.6-28.85C57.2 12.92 44.4 0 28.6 0S0 12.92 0 28.85C0 44.8 12.8 57.7 28.6 57.7Z"/></mask><g mask="url(#a)"><path fill="#020203" d="M39.53 29.42c.32.5.88.83 1.51.83.32 0 .63-.07.95-.26l8.6-5.2a1.8 1.8 0 0 0 .64-2.47 1.76 1.76 0 0 0-2.46-.63l-7.16 4.3-3.46-6.78c-.94-.95-2-1.9-3.08-2.72l-10.24-5.2a1.8 1.8 0 0 0-2.01.25l-8.55 7.8c-.76.7-.82 1.84-.13 2.54.7.76 1.82.82 2.52.12l7.73-6.97 5.34 2.72-9.18 14.34L-.38 57.07c-.81.95-.75 2.47.25 3.3.95.82 2.46.76 3.27-.26l20.3-23.65 8.74 2.03-5.97 9.45a2.31 2.31 0 0 0 3.9 2.47l7.66-12.24c.44-.63.5-1.46.26-2.15a2.2 2.2 0 0 0-1.64-1.34l-6.72-1.58 6.1-9.64 3.76 5.96Z"/></g></svg>
